<?xml version="1.0" encoding="UTF-8"?>
<svg width="140px" height="140px" viewBox="0 0 140 140" version="1.1" xmlns="http://www.w3.org/2000/svg" xmlns:xlink="http://www.w3.org/1999/xlink">
    <!-- Generator: Sketch 49.3 (51167) - http://www.bohemiancoding.com/sketch -->
    <title>Слепой метод название</title>
    <desc>Created with Sketch.</desc>
    <defs></defs>
    <g id="Слепой-метод-название" stroke="none" stroke-width="1" fill="none" fill-rule="evenodd">
        <g id="Group" transform="translate(10.000000, 20.000000)">
            <path d="M86.2756005,37.1744627 L86.2756005,41.1475382 C86.2756005,43.1418762 85.5550009,44.8518397 84.11378,46.2774798 C82.6725592,47.7031198 80.9392249,48.4159292 78.9137254,48.4159292 C76.8882258,48.4159292 75.1587867,47.6992247 73.7253562,46.2657942 C72.2919257,44.8323638 71.5752212,43.0951344 71.5752212,41.0540541 C71.5752212,39.059716 72.2919257,37.3380672 73.7253562,35.8890559 C75.1587867,34.4400447 76.864855,33.7155499 78.8436123,33.7155499 L82.8166877,33.7155499 L82.8166877,26.7977244 L78.8436123,26.7977244 C76.864855,26.7977244 75.1587867,26.0732296 73.7253562,24.6242184 C72.2919257,23.1752072 71.5752212,21.4457681 71.5752212,19.4358493 C71.5752212,17.4103497 72.2919257,15.6809106 73.7253562,14.2474801 C75.1587867,12.8140496 76.8882258,12.0973451 78.9137254,12.0973451 C80.9392249,12.0973451 82.6725592,12.8101545 84.11378,14.2357946 C85.5550009,15.6614347 86.2756005,17.3713981 86.2756005,19.3657362 L86.2756005,23.3388116 L93.193426,23.3388116 L93.193426,19.3657362 C93.193426,17.3713981 93.9140257,15.6614347 95.3552465,14.2357946 C96.7964674,12.8101545 98.5298016,12.0973451 100.555301,12.0973451 C102.596382,12.0973451 104.329716,12.8140496 105.755356,14.2474801 C107.180996,15.6809106 107.893805,17.4103497 107.893805,19.4358493 C107.893805,21.4457681 107.180996,23.1752072 105.755356,24.6242184 C104.329716,26.0732296 102.619752,26.7977244 100.625414,26.7977244 L96.6523388,26.7977244 L96.6523388,33.7155499 L100.625414,33.7155499 C102.619752,33.7155499 104.329716,34.4400447 105.755356,35.8890559 C107.180996,37.3380672 107.893805,39.059716 107.893805,41.0540541 C107.893805,43.0951344 107.180996,44.8323638 105.755356,46.2657942 C104.329716,47.6992247 102.596382,48.4159292 100.555301,48.4159292 C98.5298016,48.4159292 96.7964674,47.7031198 95.3552465,46.2774798 C93.9140257,44.8518397 93.193426,43.1418762 93.193426,41.1475382 L93.193426,37.1744627 L86.2756005,37.1744627 L86.2756005,37.1744627 Z M86.2756005,33.7155499 L93.193426,33.7155499 L93.193426,26.7977244 L86.2756005,26.7977244 L86.2756005,33.7155499 L86.2756005,33.7155499 Z M82.8166877,23.3388116 L82.8166877,19.4358493 C82.8166877,18.3607764 82.4349647,17.4454201 81.6715072,16.689753 C80.9080496,15.9340858 79.9887982,15.5562579 78.9137254,15.5562579 C77.8542333,15.5562579 76.9427721,15.9340858 76.1793146,16.689753 C75.415857,17.4454201 75.034134,18.3607764 75.034134,19.4358493 C75.034134,20.5109221 75.415857,21.4301735 76.1793146,22.1936311 C76.9427721,22.9570886 77.8620235,23.3388116 78.9370964,23.3388116 L82.8166877,23.3388116 L82.8166877,23.3388116 Z M82.8166877,37.1744627 L78.9370964,37.1744627 C77.8620235,37.1744627 76.9427721,37.5561857 76.1793146,38.3196433 C75.415857,39.0831008 75.034134,39.994562 75.034134,41.0540541 C75.034134,42.1291269 75.415857,43.0483783 76.1793146,43.8118359 C76.9427721,44.5752934 77.8620235,44.9570164 78.9370964,44.9570164 C79.9965885,44.9570164 80.9080496,44.5752934 81.6715072,43.8118359 C82.4349647,43.0483783 82.8166877,42.1369172 82.8166877,41.0774251 L82.8166877,37.1744627 L82.8166877,37.1744627 Z M96.6523388,23.3388116 L100.555301,23.3388116 C101.614793,23.3388116 102.526254,22.9570886 103.289712,22.1936311 C104.053169,21.4301735 104.434893,20.5109221 104.434893,19.4358493 C104.434893,18.3607764 104.057065,17.4454201 103.301397,16.689753 C102.54573,15.9340858 101.630374,15.5562579 100.555301,15.5562579 C99.4802283,15.5562579 98.5609769,15.9340858 97.7975194,16.689753 C97.0340619,17.4454201 96.6523388,18.3607764 96.6523388,19.4358493 L96.6523388,23.3388116 L96.6523388,23.3388116 Z M96.6523388,37.1744627 L96.6523388,41.0774251 C96.6523388,42.1369172 97.0340619,43.0483783 97.7975194,43.8118359 C98.5609769,44.5752934 99.4802283,44.9570164 100.555301,44.9570164 C101.630374,44.9570164 102.54573,44.5752934 103.301397,43.8118359 C104.057065,43.0483783 104.434893,42.1291269 104.434893,41.0540541 C104.434893,39.994562 104.053169,39.0831008 103.289712,38.3196433 C102.526254,37.5561857 101.614793,37.1744627 100.555301,37.1744627 L96.6523388,37.1744627 L96.6523388,37.1744627 Z" id="⌘-2" fill="#6E6F71"></path>
            <rect id="Rectangle-5" stroke="#6E6F71" stroke-width="5" x="2.5" y="2.5" width="115" height="95" rx="26"></rect>
        </g>
    </g>
</svg>